<svg data-v-423bf9ae="" xmlns="http://www.w3.org/2000/svg" viewBox="0 0 579 107" class="iconLeft"><!----><!----><!----><g data-v-423bf9ae="" id="537e862d-3f4b-4713-aaea-019bdbcbd013" fill="white" transform="matrix(4.325882911682129,0,0,4.325882911682129,98.58500671386719,10.135322570800781)"><path d="M3.88 3.78L1.48 3.78L1.48 14L2.58 14L2.58 10.91L3.88 10.91C6.33 10.91 8.12 9.39 8.12 7.32C8.12 5.19 6.30 3.78 3.88 3.78ZM3.91 9.95L2.58 9.95L2.58 4.73L3.91 4.73C5.67 4.73 7 5.74 7 7.32C7 8.83 5.70 9.95 3.91 9.95ZM12.89 6.58C10.85 6.58 9.27 8.19 9.27 10.33C9.27 12.50 10.81 14.14 12.91 14.14C14.57 14.14 15.83 13.06 16.07 11.76L15.08 11.76C14.87 12.66 14.01 13.23 12.91 13.23C11.47 13.23 10.40 12.15 10.29 10.63L16.11 10.63L16.21 10.54C16.39 8.41 14.91 6.58 12.89 6.58ZM10.33 9.74C10.58 8.39 11.65 7.48 12.88 7.48C14.17 7.48 15.06 8.48 15.20 9.76ZM22.39 6.58C21.22 6.58 20.16 6.99 19.04 7.78L18.87 6.72L18.12 6.72L18.12 14L19.15 14L19.15 8.65C20.15 7.98 21.21 7.50 22.12 7.50C23.23 7.50 23.86 8.12 23.86 9.30L23.86 14L24.91 14L24.91 9.25C24.91 7.50 23.95 6.58 22.39 6.58ZM33.29 6.72L33.12 7.87C32.49 7.03 31.56 6.58 30.38 6.58C28.34 6.58 26.70 8.20 26.70 10.32C26.70 12.46 28.32 14.07 30.41 14.07C31.57 14.07 32.44 13.65 33.05 12.87L33.05 13.71C33.05 15.11 31.92 16.06 30.49 16.06C29.36 16.06 28.41 15.57 28.24 14.80L27.23 14.80C27.52 16.10 28.80 16.95 30.49 16.95C32.51 16.95 34.02 15.64 34.02 13.71L34.02 6.72ZM30.45 13.17C28.99 13.17 27.76 11.91 27.76 10.32C27.76 8.72 28.99 7.49 30.45 7.49C31.65 7.49 32.52 8.13 32.98 9.09L32.98 11.56C32.49 12.56 31.65 13.17 30.45 13.17ZM41.83 6.72L41.83 12.18C40.89 12.82 39.94 13.22 39.12 13.22C38.02 13.22 37.42 12.60 37.42 11.42L37.42 6.72L36.37 6.72L36.37 11.47C36.37 13.22 37.31 14.14 38.85 14.14C39.93 14.14 40.88 13.78 41.96 13.06L42.14 14L42.88 14L42.88 6.72ZM45.89 5.10C46.33 5.10 46.69 4.73 46.69 4.27C46.69 3.85 46.33 3.50 45.89 3.50C45.44 3.50 45.09 3.85 45.09 4.27C45.09 4.73 45.44 5.10 45.89 5.10ZM46.38 6.72L45.33 6.72L45.33 14L46.38 14ZM53.12 6.58C51.95 6.58 50.89 6.99 49.77 7.78L49.60 6.72L48.85 6.72L48.85 14L49.88 14L49.88 8.65C50.88 7.98 51.94 7.50 52.85 7.50C53.96 7.50 54.59 8.12 54.59 9.30L54.59 14L55.64 14L55.64 9.25C55.64 7.50 54.68 6.58 53.12 6.58ZM61.28 8.88C61.28 12.01 63.74 14.14 66.57 14.14C69.09 14.14 71.04 12.56 71.47 10.46L70.35 10.46C69.92 12.11 68.45 13.13 66.57 13.13C64.34 13.13 62.38 11.44 62.38 8.88C62.38 6.33 64.34 4.65 66.57 4.65C68.70 4.65 70.08 5.99 70.31 7.78L71.43 7.78C71.23 5.61 69.36 3.64 66.57 3.64C63.73 3.64 61.28 5.75 61.28 8.88ZM72.80 10.33C72.80 12.45 74.38 14.14 76.61 14.14C78.82 14.14 80.40 12.45 80.40 10.33C80.40 8.25 78.82 6.58 76.61 6.58C74.38 6.58 72.80 8.25 72.80 10.33ZM73.84 10.36C73.84 8.76 74.98 7.49 76.61 7.49C78.22 7.49 79.35 8.76 79.35 10.36C79.35 11.94 78.22 13.23 76.61 13.23C74.98 13.23 73.84 11.94 73.84 10.36ZM88.06 3.08L88.06 7.66C87.42 6.94 86.53 6.58 85.46 6.58C83.41 6.58 81.77 8.20 81.77 10.33C81.77 12.52 83.40 14.14 85.47 14.14C86.66 14.14 87.56 13.69 88.20 12.87L88.40 14L89.07 14L89.07 3.08ZM85.50 13.23C84.07 13.23 82.84 11.97 82.84 10.33C82.84 8.72 84.07 7.49 85.50 7.49C86.70 7.49 87.56 8.11 88.03 9.03L88.03 11.68C87.54 12.63 86.72 13.23 85.50 13.23ZM92.11 5.10C92.54 5.10 92.90 4.73 92.90 4.27C92.90 3.85 92.54 3.50 92.11 3.50C91.66 3.50 91.31 3.85 91.31 4.27C91.31 4.73 91.66 5.10 92.11 5.10ZM92.60 6.72L91.55 6.72L91.55 14L92.60 14ZM99.33 6.58C98.17 6.58 97.10 6.99 95.98 7.78L95.82 6.72L95.06 6.72L95.06 14L96.10 14L96.10 8.65C97.09 7.98 98.15 7.50 99.06 7.50C100.17 7.50 100.80 8.12 100.80 9.30L100.80 14L101.85 14L101.85 9.25C101.85 7.50 100.90 6.58 99.33 6.58ZM110.24 6.72L110.07 7.87C109.44 7.03 108.50 6.58 107.32 6.58C105.28 6.58 103.64 8.20 103.64 10.32C103.64 12.46 105.27 14.07 107.35 14.07C108.51 14.07 109.38 13.65 110.00 12.87L110.00 13.71C110.00 15.11 108.86 16.06 107.44 16.06C106.30 16.06 105.35 15.57 105.18 14.80L104.17 14.80C104.47 16.10 105.74 16.95 107.44 16.95C109.45 16.95 110.96 15.64 110.96 13.71L110.96 6.72ZM107.39 13.17C105.94 13.17 104.71 11.91 104.71 10.32C104.71 8.72 105.94 7.49 107.39 7.49C108.60 7.49 109.47 8.13 109.93 9.09L109.93 11.56C109.44 12.56 108.60 13.17 107.39 13.17Z"></path></g><!----><g data-v-423bf9ae="" id="3eab4bf6-d9c5-4437-87d4-19c16d655ffa" transform="matrix(1.0899443626403809,0,0,1.0899443626403809,-12.558960914611816,-0.5267705917358398)" stroke="none" fill="white"><path d="M54.366.753c-11.01 0-20.201 7.741-22.456 18.074L18.194 23.27l13.263 2.241c.994 10.118 11.092 2.789 23.147 2.789 12.701 0 22.758 8.149 22.758-4.551S67.065.753 54.366.753zm-.24 20.241A2.994 2.994 0 1 1 57.12 18a2.993 2.993 0 0 1-2.994 2.994z"></path><ellipse cx="69.337" cy="67.228" rx="20.481" ry="31.62"></ellipse><path d="M37.433 35.889l-6.54-4.654.212 2.816c-10.743.976-19.261 14.73-19.261 31.56 0 17.464 9.17 31.62 20.482 31.62.975 0 1.934-.112 2.875-.315-9.951-2.16-17.608-15.348-17.608-31.306 0-13.759 5.698-25.44 13.646-29.787l.521 6.923 5.572-5.078 6.493 5.501.696-12.254-7.088 4.974z"></path></g><!----></svg>