<svg data-v-fde0c5aa="" xmlns="http://www.w3.org/2000/svg" viewBox="0 0 300 300" class="icon"><!----><defs data-v-fde0c5aa=""><linearGradient data-v-fde0c5aa="" gradientTransform="rotate(25)" id="30991941-1464-401a-935d-48f1bd0a766b" x1="0%" y1="0%" x2="100%" y2="0%"><stop data-v-fde0c5aa="" offset="0%" stop-color="#000A68" stop-opacity="1"></stop><stop data-v-fde0c5aa="" offset="100%" stop-color="#00C4EE" stop-opacity="1"></stop></linearGradient></defs><rect data-v-fde0c5aa="" fill="url(#30991941-1464-401a-935d-48f1bd0a766b)" x="0" y="0" width="300px" height="300px" class="logo-background-square"></rect><!----><defs data-v-fde0c5aa=""><!----></defs><g data-v-fde0c5aa="" id="216176b5-22e6-45dc-924f-44a7d699909d" fill="#ffffff" stroke="none" transform="matrix(2.2427239418029785,0,0,2.2427239418029785,36.0001001749406,38.31122875336564)"><path d="M54.366.753c-11.01 0-20.201 7.741-22.456 18.074L18.194 23.27l13.263 2.241c.994 10.118 11.092 2.789 23.147 2.789 12.701 0 22.758 8.149 22.758-4.551S67.065.753 54.366.753zm-.24 20.241A2.994 2.994 0 1 1 57.12 18a2.993 2.993 0 0 1-2.994 2.994z"></path><ellipse cx="69.337" cy="67.228" rx="20.481" ry="31.62"></ellipse><path d="M37.433 35.889l-6.54-4.654.212 2.816c-10.743.976-19.261 14.73-19.261 31.56 0 17.464 9.17 31.62 20.482 31.62.975 0 1.934-.112 2.875-.315-9.951-2.16-17.608-15.348-17.608-31.306 0-13.759 5.698-25.44 13.646-29.787l.521 6.923 5.572-5.078 6.493 5.501.696-12.254-7.088 4.974z"></path></g><!----></svg>